<?xml version="1.0" encoding="UTF-8" standalone="no"?>
<!-- Generator: Adobe Illustrator 17.0.0, SVG Export Plug-In . SVG Version: 6.00 Build 0)  -->

<svg
   xmlns:dc="http://purl.org/dc/elements/1.1/"
   xmlns:cc="http://creativecommons.org/ns#"
   xmlns:rdf="http://www.w3.org/1999/02/22-rdf-syntax-ns#"
   xmlns:svg="http://www.w3.org/2000/svg"
   xmlns="http://www.w3.org/2000/svg"
   xmlns:sodipodi="http://sodipodi.sourceforge.net/DTD/sodipodi-0.dtd"
   xmlns:inkscape="http://www.inkscape.org/namespaces/inkscape"
   version="1.1"
   id="Layer_1"
   x="0px"
   y="0px"
   width="100px"
   height="100px"
   viewBox="0 0 100 100"
   enable-background="new 0 0 100 100"
   xml:space="preserve"
   inkscape:version="0.48.5 r10040"
   sodipodi:docname="fi-laptop.svg"
   inkscape:export-filename="C:\Users\Exuals\Documents\Website\foundation-5.4.7\css\svgs\fi-laptop.png"
   inkscape:export-xdpi="90"
   inkscape:export-ydpi="90"><metadata
   id="metadata2996"><rdf:RDF><cc:Work
       rdf:about=""><dc:format>image/svg+xml</dc:format><dc:type
         rdf:resource="http://purl.org/dc/dcmitype/StillImage" /><dc:title></dc:title></cc:Work></rdf:RDF></metadata><defs
   id="defs2994" /><sodipodi:namedview
   pagecolor="#ffffff"
   bordercolor="#666666"
   borderopacity="1"
   objecttolerance="10"
   gridtolerance="10"
   guidetolerance="10"
   inkscape:pageopacity="0"
   inkscape:pageshadow="2"
   inkscape:window-width="1600"
   inkscape:window-height="848"
   id="namedview2992"
   showgrid="false"
   inkscape:zoom="0.82625"
   inkscape:cx="250.94293"
   inkscape:cy="55.74692"
   inkscape:window-x="-8"
   inkscape:window-y="-8"
   inkscape:window-maximized="1"
   inkscape:current-layer="Layer_1" />
<g
   id="g2986"
   transform="matrix(1.9125129,0,0,1.9125129,-2.1726933,-78.792744)"
   inkscape:export-filename="C:\Users\Exuals\Pictures\logowc3.png"
   inkscape:export-xdpi="90"
   inkscape:export-ydpi="90">
	<path
   d="m 14.022,67.699 h 71.957 c 2.747,0 4.976,-2.229 4.976,-4.977 V 18.628 c 0,-2.75 -2.229,-4.976 -4.976,-4.976 H 14.022 c -2.747,0 -4.976,2.226 -4.976,4.976 v 44.094 c -10e-4,2.748 2.228,4.977 4.976,4.977 z M 18.998,23.604 H 81.003 V 57.746 H 18.998 V 23.604 z"
   id="path2988"
   inkscape:connector-curvature="0"
   style="fill:#231f20" />
	<path
   d="M 95.325,72.686 H 4.675 c -1.267,0 -2.294,1.027 -2.294,2.294 v 5.555 c 0,0.58 0.218,1.135 0.609,1.559 l 3.25,3.518 c 0.433,0.466 1.045,0.735 1.684,0.735 h 83.915 c 0.612,0 1.198,-0.245 1.631,-0.681 l 3.485,-3.519 c 0.424,-0.43 0.664,-1.01 0.664,-1.613 V 74.98 c 0,-1.266 -1.028,-2.294 -2.294,-2.294 z m -36.656,7.969 c 0,0.28 -0.185,0.507 -0.415,0.507 H 41.746 c -0.23,0 -0.415,-0.227 -0.415,-0.507 v -2.264 c 0,-0.28 0.185,-0.504 0.415,-0.504 h 16.508 c 0.23,0 0.415,0.224 0.415,0.504 v 2.264 z"
   id="path2990"
   inkscape:connector-curvature="0"
   style="fill:#231f20" />
</g>
<text
   xml:space="preserve"
   style="font-size:68.85046387px;font-style:normal;font-variant:normal;font-weight:normal;font-stretch:normal;line-height:125%;letter-spacing:0px;word-spacing:0px;fill:#000000;fill-opacity:1;stroke:none;font-family:Exo;-inkscape-font-specification:Exo"
   x="39.781067"
   y="22.764286"
   id="text2998"
   sodipodi:linespacing="125%"
   inkscape:export-filename="C:\Users\Exuals\Pictures\logowc3.png"
   inkscape:export-xdpi="90"
   inkscape:export-ydpi="90"><tspan
     sodipodi:role="line"
     id="tspan3000"
     x="39.781067"
     y="22.764286">WC</tspan></text>
</svg>